# xmcd
#
# Track frame offsets:
#	150
#	9522
#	19930
#	31680
#	43805
#	55447
#	66102
#	75890
#	89872
#	100242
#	112890
#	125160
#	134240
#	148482
#	161427
#	176472
#	185972
#	197460
#	208420
#	221835
#	232967
#	250252
#	261142
#	272080
#
# Disc length: 3772 seconds
#
# Revision: 0
# Processed by: cddbd v1.5PL3 Copyright (c) Steve Scherf et al.
# Submitted via: dBpowerAMP V4.0
#
DISCID=6f0eba18
DTITLE=Dixie Aces - Volume 1
DYEAR=1900
DGENRE=country
TTITLE0=Let's have a party
TTITLE1=Stuck on you
TTITLE2=Twenty flight rock
TTITLE3=Right or wrong
TTITLE4=Shoppin' around
TTITLE5=Love bug Crawl
TTITLE6=Telephone baby
TTITLE7=LaGolondrina
TTITLE8=Gotta lot of rhythm in my soul
TTITLE9=Crazy arms
TTITLE10=Don't worry
TTITLE11=Many tears ago
TTITLE12=Don't mess with mamma
TTITLE13=Honky tonk man
TTITLE14=Save the last dance for me
TTITLE15=Bacarolle
TTITLE16=No particular place to go
TTITLE17=You're welcome
TTITLE18=Willy and the handjive
TTITLE19=All alone am I
TTITLE20=Seven letters
TTITLE21=Till I found you
TTITLE22=Kansas city
TTITLE23=Geronimo
EXTD=
EXTT0=
EXTT1=
EXTT2=
EXTT3=
EXTT4=
EXTT5=
EXTT6=
EXTT7=
EXTT8=
EXTT9=
EXTT10=
EXTT11=
EXTT12=
EXTT13=
EXTT14=
EXTT15=
EXTT16=
EXTT17=
EXTT18=
EXTT19=
EXTT20=
EXTT21=
EXTT22=
EXTT23=
PLAYORDER=
